<?xml version="1.0" encoding="UTF-8"?>
<svg width="600" height="400" viewBox="0 0 600 400" fill="none" xmlns="http://www.w3.org/2000/svg">
    <!-- Arka plan deseni -->
    <defs>
        <pattern id="dots" x="0" y="0" width="20" height="20" patternUnits="userSpaceOnUse">
            <circle cx="2" cy="2" r="1" fill="rgba(255,255,255,0.1)"/>
        </pattern>
    </defs>
    <rect width="600" height="400" fill="url(#dots)"/>
    
    <!-- Blog görseli -->
    <g transform="translate(50,50)">
        <!-- Blog post kartları -->
        <rect x="0" y="0" width="200" height="120" rx="10" fill="white" opacity="0.9"/>
        <rect x="20" y="20" width="120" height="10" rx="5" fill="#0d6efd"/>
        <rect x="20" y="40" width="160" height="8" rx="4" fill="#e2e8f0"/>
        <rect x="20" y="55" width="140" height="8" rx="4" fill="#e2e8f0"/>
        <rect x="20" y="80" width="80" height="20" rx="10" fill="#0d6efd"/>
        
        <!-- İkinci kart -->
        <rect x="220" y="40" width="200" height="120" rx="10" fill="white" opacity="0.8"/>
        <rect x="240" y="60" width="120" height="10" rx="5" fill="#0d6efd"/>
        <rect x="240" y="80" width="160" height="8" rx="4" fill="#e2e8f0"/>
        <rect x="240" y="95" width="140" height="8" rx="4" fill="#e2e8f0"/>
        
        <!-- Üçüncü kart -->
        <rect x="120" y="180" width="200" height="120" rx="10" fill="white" opacity="0.7"/>
        <rect x="140" y="200" width="120" height="10" rx="5" fill="#0d6efd"/>
        <rect x="140" y="220" width="160" height="8" rx="4" fill="#e2e8f0"/>
        <rect x="140" y="235" width="140" height="8" rx="4" fill="#e2e8f0"/>
    </g>
    
    <!-- Dekoratif elementler -->
    <circle cx="500" cy="100" r="30" fill="white" opacity="0.1"/>
    <circle cx="520" cy="300" r="50" fill="white" opacity="0.05"/>
    <circle cx="100" cy="350" r="40" fill="white" opacity="0.08"/>
</svg> 