<?xml version="1.0" encoding="UTF-8"?>
<svg width="800" height="600" viewBox="0 0 800 600" fill="none" xmlns="http://www.w3.org/2000/svg">
    <!-- Arka plan -->
    <rect width="800" height="600" fill="#f8f9fa"/>
    
    <!-- Dekoratif desen -->
    <defs>
        <pattern id="grid" x="0" y="0" width="40" height="40" patternUnits="userSpaceOnUse">
            <rect width="40" height="40" fill="white"/>
            <circle cx="20" cy="20" r="1" fill="#e9ecef"/>
        </pattern>
    </defs>
    <rect width="800" height="600" fill="url(#grid)"/>
    
    <!-- Merkezi ikon -->
    <g transform="translate(300,200)">
        <!-- Kamera ikonu -->
        <rect x="0" y="0" width="200" height="160" rx="20" fill="#dee2e6"/>
        <rect x="60" y="40" width="80" height="80" rx="40" fill="#adb5bd"/>
        <circle cx="100" cy="80" r="30" fill="#dee2e6"/>
        <rect x="150" y="20" width="20" height="20" rx="5" fill="#adb5bd"/>
    </g>
    
    <!-- Metin alanı -->
    <g transform="translate(250,400)">
        <rect x="0" y="0" width="300" height="20" rx="10" fill="#dee2e6"/>
        <rect x="50" y="30" width="200" height="15" rx="7.5" fill="#e9ecef"/>
    </g>
    
    <!-- Dekoratif şekiller -->
    <circle cx="700" cy="100" r="50" fill="#e9ecef" opacity="0.5"/>
    <circle cx="100" cy="500" r="70" fill="#e9ecef" opacity="0.3"/>
    <circle cx="750" cy="500" r="30" fill="#e9ecef" opacity="0.4"/>
    
    <!-- Animasyonlu elementler -->
    <style>
        @keyframes float {
            0% { transform: translateY(0px); }
            50% { transform: translateY(-10px); }
            100% { transform: translateY(0px); }
        }
        .floating {
            animation: float 6s ease-in-out infinite;
        }
    </style>
    
    <g class="floating">
        <circle cx="150" cy="150" r="20" fill="#0d6efd" opacity="0.1"/>
        <circle cx="650" cy="450" r="25" fill="#0d6efd" opacity="0.1"/>
    </g>
</svg> 